<svg xmlns="http://www.w3.org/2000/svg" viewBox="0 0 512 512" role="img" aria-labelledby="title desc">
  <title id="title">SinclairLin 的博客图标</title>
  <desc id="desc">绿色背景上的 SL 字母标识</desc>
  <rect width="512" height="512" rx="120" fill="#101915"/>
  <path fill="#2bbc8a" d="M108 132c0-24 20-44 44-44h208c24 0 44 20 44 44v248c0 24-20 44-44 44H152c-24 0-44-20-44-44V132Z"/>
  <path fill="#101915" d="M178 332c16 12 35 19 57 19 24 0 38-9 38-25 0-14-9-22-37-32-42-15-68-34-68-75 0-43 36-73 89-73 28 0 51 7 69 20l-22 43c-12-9-28-15-47-15-22 0-34 10-34 23 0 15 12 21 43 33 45 17 62 38 62 75 0 43-33 76-95 76-31 0-61-9-78-22l23-47Z"/>
  <path fill="#101915" d="M331 149h55v200h92v48H331V149Z" transform="translate(-8 0)"/>
</svg>
